# xmcd
#
# Track frame offsets:
#	150
#	29876
#	58060
#	80617
#	105545
#	126029
#	149219
#	169390
#	195279
#	218927
#
# Disc length: 3202 seconds
#
# Revision: 1
# Processed by: cddbd v1.5.2PL0 Copyright (c) Steve Scherf et al.
# Submitted via: EZCDAudioConverter 1.3.4.1
#
DISCID=9b0c800a
DTITLE=Hong Truc - Cho Nguoi Vao Cuoc Chien
DYEAR=1998
DGENRE=Country
TTITLE0=Cho nguoi vao cuoc chien
TTITLE1=Ha buon
TTITLE2=Cuon theo chieu gio
TTITLE3=Quan vang bien thuy
TTITLE4=Troi ghen ma do (Nam 17 tuoi)
TTITLE5=Biet dau tim
TTITLE6=Rung ai an
TTITLE7=Mot nguoi di
TTITLE8=Ben goi mong
TTITLE9=The roi mot mua he
EXTD=
EXTT0=
EXTT1=
EXTT2=
EXTT3=
EXTT4=
EXTT5=
EXTT6=
EXTT7=
EXTT8=
EXTT9=
PLAYORDER=
